<svg width="22" height="22" viewBox="0 0 22 22" fill="none" xmlns="http://www.w3.org/2000/svg">
<path d="M0.55642 21.5C0.412307 21.5 0.283589 21.4432 0.170264 21.3297C0.0567549 21.2163 0 21.0876 0 20.9434V12.5949L2.15084 7.50223C2.25359 7.24583 2.41514 7.04222 2.63548 6.89139C2.85601 6.74056 3.10464 6.66514 3.38136 6.66514H12.5409C12.8141 6.66514 13.0645 6.74056 13.292 6.89139C13.5196 7.04222 13.6865 7.24583 13.7928 7.50223L15.9222 12.5949V20.9434C15.9222 21.0876 15.8655 21.2163 15.752 21.3297C15.6386 21.4432 15.5099 21.5 15.3658 21.5H15.109C14.9514 21.5 14.8192 21.4432 14.7126 21.3297C14.6059 21.2163 14.5526 21.0876 14.5526 20.9434V19.3809H1.36963V20.9434C1.36963 21.0876 1.31297 21.2163 1.19964 21.3297C1.08613 21.4432 0.95732 21.5 0.813207 21.5H0.55642ZM1.61779 11.5031H14.2978L12.7378 7.77829H3.18439L1.61779 11.5031ZM1.11284 18.2677H14.8094V12.6163H1.11284V18.2677ZM3.96421 16.6834C4.31031 16.6834 4.60289 16.5675 4.84196 16.3356C5.08085 16.1037 5.2003 15.8125 5.2003 15.462C5.2003 15.1116 5.07918 14.8137 4.83696 14.5685C4.59454 14.323 4.30029 14.2003 3.9542 14.2003C3.60792 14.2003 3.31533 14.323 3.07644 14.5685C2.83737 14.8137 2.71783 15.1116 2.71783 15.462C2.71783 15.8125 2.83904 16.1037 3.08145 16.3356C3.32368 16.5675 3.61793 16.6834 3.96421 16.6834ZM11.968 16.6834C12.3143 16.6834 12.6069 16.5675 12.8458 16.3356C13.0849 16.1037 13.2044 15.8125 13.2044 15.462C13.2044 15.1116 13.0832 14.8137 12.8408 14.5685C12.5984 14.323 12.3041 14.2003 11.958 14.2003C11.6117 14.2003 11.3192 14.323 11.0803 14.5685C10.8412 14.8137 10.7217 15.1116 10.7217 15.462C10.7217 15.8125 10.8429 16.1037 11.0853 16.3356C11.3277 16.5675 11.6219 16.6834 11.968 16.6834ZM17.8054 18.3317V9.65783L15.7317 4.69571H5.1811L5.29656 4.41965C5.40284 4.16326 5.56976 3.95965 5.79734 3.80882C6.0251 3.65799 6.27549 3.58257 6.5485 3.58257H15.5798C15.8494 3.58257 16.0966 3.65752 16.3212 3.80743C16.546 3.95733 16.709 4.16141 16.8103 4.41965L18.9183 9.42657V17.4754C18.9183 17.7053 18.833 17.9055 18.6626 18.076C18.4921 18.2465 18.292 18.3317 18.0622 18.3317H17.8054ZM20.8872 15.1637V6.48982L18.8348 1.61314H8.36994L8.4854 1.33708C8.59168 1.08069 8.7586 0.877077 8.98618 0.726246C9.21375 0.575416 9.46414 0.5 9.73734 0.5H18.6829C18.9526 0.5 19.1997 0.574952 19.4243 0.724855C19.6491 0.874759 19.8122 1.07883 19.9134 1.33708L22 6.28V14.3074C22 14.5371 21.9148 14.7373 21.7443 14.908C21.5737 15.0785 21.3736 15.1637 21.1439 15.1637H20.8872Z" fill="white"/>
</svg>
