<svg width="25" height="24" viewBox="0 0 25 24" fill="none" xmlns="http://www.w3.org/2000/svg">
<path d="M14.0213 11.05L10.4828 7.51155L11.1963 6.82305L14.0213 9.64805L19.6963 3.99805L20.3845 4.68655L14.0213 11.05ZM7.5 18.6538L15.0655 20.8615L21.0538 19.0115C21.0346 18.7077 20.9427 18.4888 20.778 18.3548C20.6132 18.2208 20.4308 18.1538 20.2308 18.1538H15.4885C15.0642 18.1538 14.6802 18.1371 14.3365 18.1038C13.993 18.0705 13.6411 17.991 13.2808 17.8655L11.0905 17.148L11.4288 16.1595L13.4538 16.8923C13.7756 17.0141 14.141 17.0872 14.55 17.1115C14.959 17.1359 15.5193 17.15 16.2308 17.1538C16.2308 16.8423 16.1734 16.5904 16.0588 16.398C15.9439 16.2057 15.7795 16.0718 15.5655 15.9963L9.8115 13.8845C9.773 13.8719 9.73775 13.8623 9.70575 13.8558C9.67375 13.8495 9.6385 13.8463 9.6 13.8463H7.5V18.6538ZM3.5 21V12.8463H9.58075C9.67175 12.8463 9.766 12.8555 9.8635 12.874C9.96083 12.8927 10.0532 12.9187 10.1405 12.952L15.9193 15.0693C16.2769 15.2051 16.5849 15.4494 16.8433 15.802C17.1016 16.1545 17.2308 16.6051 17.2308 17.1538H20.2308C20.8333 17.1538 21.2948 17.3423 21.6155 17.7193C21.936 18.0961 22.0963 18.5743 22.0963 19.1538V19.7693L15.1155 21.923L7.5 19.7038V21H3.5ZM4.5 20H6.5V13.8463H4.5V20Z" fill="white"/>
</svg>
