<svg width="125" height="125" viewBox="0 0 125 125" fill="none" xmlns="http://www.w3.org/2000/svg">
<path d="M40.6654 104.167H84.3346V88.5417C84.3346 82.4115 82.2279 77.1732 78.0143 72.8268C73.8017 68.4796 68.6302 66.306 62.5 66.306C56.3698 66.306 51.1984 68.4796 46.9857 72.8268C42.7721 77.1732 40.6654 82.4115 40.6654 88.5417V104.167ZM62.5 58.694C68.6302 58.694 73.8017 56.5204 78.0143 52.1732C82.2279 47.8268 84.3346 42.5885 84.3346 36.4583V20.8333H40.6654V36.4583C40.6654 42.5885 42.7721 47.8268 46.9857 52.1732C51.1984 56.5204 56.3698 58.694 62.5 58.694ZM26.0417 109.375V104.167H35.457V88.5417C35.457 82.1111 37.4284 76.4071 41.3711 71.4297C45.3138 66.4514 50.3668 63.4748 56.53 62.5C50.3668 61.4583 45.3138 58.4653 41.3711 53.5208C37.4284 48.5764 35.457 42.8889 35.457 36.4583V20.8333H26.0417V15.625H98.9583V20.8333H89.543V36.4583C89.543 42.8889 87.5716 48.5764 83.6289 53.5208C79.6862 58.4653 74.6332 61.4583 68.4701 62.5C74.6332 63.4748 79.6862 66.4514 83.6289 71.4297C87.5716 76.4071 89.543 82.1111 89.543 88.5417V104.167H98.9583V109.375H26.0417Z" fill="white" fill-opacity="0.5"/>
</svg>
