<svg width="18" height="18" viewBox="0 0 18 18" fill="none" xmlns="http://www.w3.org/2000/svg">
<path d="M8.775 16H0V13.2C0 12.6333 0.145833 12.1125 0.4375 11.6375C0.729167 11.1625 1.11667 10.8 1.6 10.55C2.63333 10.0333 3.68333 9.64583 4.75 9.3875C5.81667 9.12917 6.9 9 8 9V11C7.06667 11 6.14167 11.1125 5.225 11.3375C4.30833 11.5625 3.4 11.9 2.5 12.35C2.35 12.4333 2.22917 12.55 2.1375 12.7C2.04583 12.85 2 13.0167 2 13.2V14H8.125C8.19167 14.35 8.27917 14.6917 8.3875 15.025C8.49583 15.3583 8.625 15.6833 8.775 16ZM14 18C12.7833 17.7 11.8125 17.0333 11.0875 16C10.3625 14.9667 10 13.8167 10 12.55V10L14 8L18 10V12.55C18 13.8167 17.6375 14.9667 16.9125 16C16.1875 17.0333 15.2167 17.7 14 18ZM14 15.9C14.6333 15.6 15.125 15.1417 15.475 14.525C15.825 13.9083 16 13.25 16 12.55V11.25L14 10.25L12 11.25V12.55C12 13.25 12.175 13.9083 12.525 14.525C12.875 15.1417 13.3667 15.6 14 15.9ZM8 8C6.9 8 5.95833 7.60833 5.175 6.825C4.39167 6.04167 4 5.1 4 4C4 2.9 4.39167 1.95833 5.175 1.175C5.95833 0.391667 6.9 0 8 0C9.1 0 10.0417 0.391667 10.825 1.175C11.6083 1.95833 12 2.9 12 4C12 5.1 11.6083 6.04167 10.825 6.825C10.0417 7.60833 9.1 8 8 8ZM8 6C8.55 6 9.02083 5.80417 9.4125 5.4125C9.80417 5.02083 10 4.55 10 4C10 3.45 9.80417 2.97917 9.4125 2.5875C9.02083 2.19583 8.55 2 8 2C7.45 2 6.97917 2.19583 6.5875 2.5875C6.19583 2.97917 6 3.45 6 4C6 4.55 6.19583 5.02083 6.5875 5.4125C6.97917 5.80417 7.45 6 8 6Z" fill="#52C42B"/>
</svg>
