<svg width="14" height="16" viewBox="0 0 14 16" fill="none" xmlns="http://www.w3.org/2000/svg">
<path d="M2.6155 15.8845C2.168 15.8845 1.78683 15.7272 1.472 15.4125C1.15733 15.0977 1 14.7165 1 14.269V1.88448H0V0.884485H4V0.115234H10V0.884485H14V1.88448H13V14.269C13 14.7293 12.8458 15.1137 12.5375 15.422C12.2292 15.7303 11.8448 15.8845 11.3845 15.8845H2.6155ZM12 1.88448H2V14.269C2 14.4485 2.05767 14.596 2.173 14.7115C2.2885 14.8268 2.436 14.8845 2.6155 14.8845H11.3845C11.5385 14.8845 11.6796 14.8204 11.8077 14.6922C11.9359 14.5641 12 14.423 12 14.269V1.88448ZM4.80775 12.8845H5.80775V3.88449H4.80775V12.8845ZM8.19225 12.8845H9.19225V3.88449H8.19225V12.8845Z" fill="white"/>
</svg>
