<svg width="95" height="100" viewBox="0 0 95 100" fill="none" xmlns="http://www.w3.org/2000/svg">
<path d="M23.6309 79.1768L21.0732 78.7363C22.3036 79.1918 23.105 79.5421 23.4277 79.7549C24.8751 80.6382 25.9823 81.8491 26.7939 83.3994C27.2228 84.2342 27.5321 85.1155 27.7471 86.0586C27.916 86.8822 27.9861 87.7475 27.9824 88.6709V95.2588L19.7656 96.9453V90.3564C19.7682 90.0556 19.7502 89.7588 19.6953 89.4912C19.5353 88.8159 19.203 88.2399 18.6855 87.8096C17.9569 87.1866 17.0771 86.9811 16.0518 87.2129L11.0684 88.2354L13.7529 88.2432L13.6904 98.1914L4.87695 100L5.02832 71.6621C5.03145 71.4685 5.01815 71.2994 4.98438 71.1348C4.91618 70.6982 4.69167 70.337 4.35645 70.0625C3.90923 69.6607 3.34834 69.5397 2.68945 69.6748L13.8711 67.3799L13.8057 79.0898L15.4121 78.7598L18.8086 68.5352C18.8894 68.1967 18.9123 67.8908 18.8574 67.623C18.8315 67.3925 18.7317 67.2198 18.5908 67.0557C18.2799 66.6904 17.8256 66.5687 17.208 66.6953L28.5957 64.3594L23.6309 79.1768ZM50.7383 90.5908L37.8467 93.2354L32.2734 66.0723C32.1424 65.4341 31.8022 64.9242 31.2314 64.5479C30.6607 64.1715 30.0582 64.0596 29.4199 64.1904L40.8076 61.8535L43.9912 81.0303L44.042 83.7881L47.5332 62.9414C47.5933 62.6073 47.5959 62.3067 47.541 62.0391C47.4819 61.7509 47.3451 61.4997 47.1504 61.2822C46.765 60.8678 46.2446 60.7383 45.6064 60.8691L56.9531 58.541L50.7383 90.5908ZM68.7988 86.8848L59.9844 88.6934L60.1367 60.3555C60.1399 60.1618 60.1266 59.9928 60.0928 59.8281C60.0246 59.3915 59.8001 59.0294 59.4648 58.7549C59.0176 58.3533 58.4557 58.233 57.7969 58.3682L68.9795 56.0732L68.7988 86.8848ZM84.8105 74.0283L82.1396 75.1338L93.4043 72.8232L93.3672 81.8438L71.085 86.416L80.7217 62.6777L73.3486 64.1904L73.3906 57.5938C73.3774 57.4248 73.3636 57.2555 73.334 57.1113C73.2452 56.679 73.0208 56.3175 72.6855 56.043C72.2383 55.6412 71.6979 55.5155 71.0596 55.6465L94.207 50.8975L84.8105 74.0283ZM17.1973 25.3789C19.2358 24.9607 21.1383 25.0948 22.8799 25.7871C24.6215 26.4795 25.9815 27.6253 26.9883 29.2432C27.5836 30.1956 27.9966 31.2357 28.2568 32.3818C28.4192 33.1733 28.4903 34.0089 28.4707 34.8877C28.4572 37.0148 27.9351 39.0967 26.9033 41.1328C25.8666 43.1449 24.4682 44.8563 22.7373 46.2861C20.9774 47.6969 19.0659 48.6139 17.0273 49.0322L10.5518 50.3613L13.6777 50.3691L13.6055 61.9561L3.34082 64.0625L3.51758 31.0596C3.52124 30.834 3.50517 30.6371 3.46582 30.4453C3.38647 29.937 3.12556 29.516 2.73535 29.1963C2.2145 28.7284 1.56034 28.5868 0.792969 28.7441L17.1973 25.3789ZM60.5967 37.3691C60.5672 40.1493 59.8751 42.8657 58.5488 45.5371C57.2127 48.1605 55.4039 50.4308 53.1084 52.2764C50.8369 54.117 48.3603 55.3249 45.6982 55.8711C44.0913 56.2008 42.5307 56.2715 40.9834 56.0391C39.4941 55.8448 38.1234 55.3764 36.9053 54.6768C35.7159 53.996 34.6545 53.0888 33.7031 51.9844C32.7806 50.899 32.0931 49.6151 31.625 48.1865C31.4787 47.7168 31.3562 47.2422 31.2578 46.7627C31.0462 45.7314 30.9441 44.6275 30.9287 43.4561L31.041 25.3623C31.0257 25.1658 31.0099 24.9694 30.9756 24.8018C30.8722 24.2981 30.6102 23.8764 30.2197 23.5566C29.6989 23.0889 29.0694 22.9433 28.374 23.0859L41.3008 20.4336L41.166 40.4805C41.1679 40.855 41.1879 41.2013 41.2568 41.5371C41.434 42.4004 41.8509 43.0896 42.4873 43.6338C43.3649 44.3785 44.4657 44.627 45.7607 44.3613C47.0079 44.1054 48.0901 43.4086 48.9873 42.2998C49.8794 41.1671 50.3485 39.9208 50.3516 38.5957L50.4434 21.3818C50.428 21.185 50.4124 20.9882 50.3779 20.8203C50.2746 20.3167 50.0379 19.8901 49.6475 19.5703C49.1266 19.1023 48.472 18.9617 47.7285 19.1143L60.7041 16.4521L60.5967 37.3691ZM78.0439 12.8945C79.9866 12.4959 81.7645 12.6308 83.4004 13.2949C85.0362 13.959 86.3334 15.0429 87.2676 16.5508C87.829 17.4603 88.2278 18.4286 88.4492 19.5078C88.6017 20.2511 88.6578 21.0142 88.6523 21.8398C88.6592 23.2129 88.3977 24.6165 87.8672 26.0498C87.7866 26.2663 87.6105 26.6278 87.3203 27.1621C87.0301 27.6965 86.7493 28.1544 86.4873 28.583L86.1152 29.209L88.3389 26.4033C89.9397 27.7494 90.942 29.4685 91.375 31.5791C91.5373 32.3704 91.6138 33.2293 91.623 34.127C91.6096 36.2541 91.087 38.3359 90.0791 40.3672C89.0713 42.3983 87.6733 44.1098 85.9375 45.5156C84.2064 46.9455 82.2945 47.863 80.2559 48.2812L64.8828 51.4355L65.0596 18.4326C65.0632 18.2071 65.0481 18.0101 65.0088 17.8184C64.9294 17.31 64.6677 16.889 64.2773 16.5693C63.7564 16.1014 63.1024 15.9607 62.335 16.1182L78.0439 12.8945ZM18.4062 35.6533C18.0735 35.3717 17.655 35.2824 17.1514 35.3857L13.7695 36.0791L13.7393 39.71L17.1211 39.0156C17.6247 38.9123 18.022 38.6557 18.3848 38.2314C18.6947 37.793 18.8755 37.3308 18.8779 36.8555C18.8724 36.7068 18.8664 36.5578 18.8369 36.4141C18.7969 36.0976 18.6421 35.8298 18.4062 35.6533ZM81.8076 34.7666C81.4461 34.466 80.9986 34.3577 80.4951 34.4609L74.5469 35.6816L74.5234 39.585L80.4707 38.3652C80.9744 38.2619 81.4146 37.9708 81.7725 37.5225C82.1303 37.0741 82.3252 36.5595 82.3418 36.0312C82.3343 35.5082 82.145 35.0722 81.8076 34.7666ZM79.46 22.3516C79.0983 22.0509 78.675 21.9377 78.1953 22.0361L74.5977 22.7744L74.5742 26.6777L78.1719 25.9404C78.6755 25.8371 79.0918 25.5509 79.4736 25.0977C79.8314 24.6494 80.0015 24.1394 79.9941 23.6162C79.9886 23.4675 79.9836 23.3186 79.9541 23.1748C79.8612 22.844 79.7059 22.576 79.46 22.3516ZM31.3682 6.0459C32.0248 5.91118 32.6373 5.95478 33.1982 6.17773C33.7593 6.40077 34.1981 6.76983 34.5225 7.29102C34.7141 7.59773 34.8469 7.9327 34.9307 8.30176C34.9829 8.55657 35.0063 8.82549 35 9.1084C34.9957 9.79363 34.8265 10.4652 34.4941 11.1211C34.1602 11.769 33.7098 12.3198 33.1523 12.7803C32.5855 13.2347 31.9701 13.5303 31.3135 13.665L29.2275 14.0938L30.2344 14.0957L30.2109 17.8281L26.9043 18.5068L26.9609 7.87598C26.9621 7.80327 26.958 7.73954 26.9453 7.67773C26.9197 7.51397 26.8347 7.37837 26.709 7.27539C26.5413 7.12484 26.331 7.07928 26.084 7.12988L31.3682 6.0459ZM43.3906 6.7998L38.1982 7.86523L39.1895 7.87109L39.1787 8.71875L42.709 7.99414L42.6924 11.21L38.165 12.1387L39.1582 12.1523V12.7803L43.5703 11.875L43.5537 15.0908L35.835 16.6748L35.8926 6.04297C35.8937 5.97053 35.8886 5.90732 35.876 5.8457C35.8504 5.68202 35.7662 5.54633 35.6406 5.44336C35.4728 5.29261 35.2619 5.24713 35.0146 5.29785L43.3975 3.57812L43.3906 6.7998ZM53.3174 4.7627L49.7256 5.5L50.7168 5.50586L50.6689 13.6309L47.3545 14.3105L47.415 5.97363L44.8193 6.50586L44.8232 4.21094C44.8244 4.13823 44.8193 4.0745 44.8066 4.0127C44.781 3.84904 44.697 3.71328 44.5713 3.61035C44.4036 3.45983 44.1932 3.41429 43.9463 3.46484L53.3252 1.54102L53.3174 4.7627ZM63.1074 11.0791L59.6387 11.791L59.3867 10.3291L56.1807 10.9863L57.1846 10.9736L56.9658 12.3389L53.582 13.0332L55.7324 1.97266C55.7627 1.84582 55.7618 1.72536 55.7412 1.625C55.7206 1.52456 55.6766 1.42829 55.6035 1.34668C55.4666 1.18987 55.2715 1.1417 55.0244 1.19238L60.835 0L63.1074 11.0791ZM31.3535 9.26953L30.2637 9.49316L30.2539 10.6621L31.3438 10.4385C31.5059 10.4052 31.6342 10.3231 31.751 10.1865C31.8508 10.0453 31.9083 9.89622 31.9092 9.74316C31.9074 9.69522 31.906 9.64694 31.8965 9.60059C31.8836 9.49873 31.8337 9.41231 31.7578 9.35547C31.6507 9.26478 31.5157 9.23631 31.3535 9.26953ZM57.7949 7.43457L58.8848 7.21094L58.3633 4.04199L57.7949 7.43457Z" fill="white"/>
</svg>
