<svg width="556" height="486" viewBox="0 0 556 486" fill="none" xmlns="http://www.w3.org/2000/svg">
<path d="M162.436 97.3701L171.081 97.8252L209.756 98.7354L214.761 99.6455H223.406L224.771 100.556L240.241 101.466L245.701 102.375L254.346 103.285L255.256 103.74L261.626 104.195L263.687 105.132L267.541 105.561L275.275 106.471L280.281 107.836L281.646 108.29L286.65 108.745L289.381 110.11H292.565L300.301 112.386L302.576 112.841L305.761 113.296L322.141 117.846L333.061 121.03L343.525 124.216L346.711 125.125L348.531 126.035L351.261 126.49L359.451 129.221L360.815 130.131L368.551 131.95L374.011 134.681L380.381 136.5L382.656 137.865L387.206 139.23L389.48 140.596L393.576 141.961L397.216 143.78L398.126 143.325L403.586 146.511L409.956 148.785L412.686 150.15L421.331 154.7L424.061 156.521L427.701 158.341L429.976 160.16L434.98 162.891L443.626 168.351L451.36 173.355L460.006 179.726L472.746 189.28L476.841 192.011L482.573 196.515L482.756 196.561L483.211 197.016L488.216 201.11L493.676 205.205L497.771 208.846L500.501 210.665L506.416 215.671L512.331 221.131L519.61 227.955L523.706 232.506L526.436 236.601L530.531 242.061L532.351 244.336L535.991 252.07L538.721 257.075L540.541 264.355L541.906 266.176L544.181 273.455L546.456 279.825L547.366 284.375L549.641 292.565L550.551 298.025L551.461 302.12L552.371 308.035L553.735 315.315L554.646 328.056L555.101 328.511V341.705L554.646 342.16L554.19 350.806L551.916 360.36L549.186 368.551L546.456 374.921L540.996 384.931L536.446 393.12L531.896 400.4L525.98 408.591L521.886 414.051L517.791 419.056L512.786 425.426L507.781 431.341L504.596 434.98L498.226 441.351L494.586 445.9L490.491 449.995L487.306 453.636L479.116 461.825L475.476 465.011L469.561 471.381L465.921 474.565L460.006 480.025L454.546 485.03L452.726 485.485L451.36 484.575L451.815 482.756L454.091 480.48L460.006 475.021L463.646 471.835L469.105 466.83L472.291 463.19L475.476 460.006L479.116 456.82L485.031 450.905L488.216 447.266L493.676 441.351L497.771 436.801L500.956 434.07L506.871 426.335L513.241 417.69L520.521 405.405L525.98 395.396L529.621 387.66L533.716 376.285L534.832 370.328L535.991 363.091V341.705L535.536 339.886L535.647 339.818L535.081 336.7L534.626 331.695L533.261 323.961L532.806 320.775L531.896 314.86L530.985 309.4L529.621 305.761L528.711 301.211L525.525 289.381L523.251 284.375L519.61 273.91L517.336 269.815L516.426 267.086L514.605 264.355L512.786 260.716L510.511 256.62L506.416 251.16L503.23 248.431L502.321 249.341L501.411 256.62L500.956 257.53V271.636L501.411 274.365L502.775 282.101L503.23 283.921L503.686 288.471L504.596 293.931L505.506 299.846L506.416 304.851L507.781 311.221L508.69 318.046L509.601 320.32L510.056 327.601L510.966 330.33V333.061L511.421 334.426V337.155L511.572 337.913L511.876 338.065V339.431L512.28 342.261L512.786 343.525L513.696 350.351L515.061 355.811L515.174 356.721L515.516 359.451L515.971 360.815L516.426 365.82L517.336 368.096L518.246 373.101L519.611 379.926L520.521 381.745L520.976 385.841L521.431 387.206V392.666L505.506 408.591L504.141 409.046L502.775 406.771L501.865 402.676L500.956 396.306L499.591 392.666L498.681 388.57L497.771 384.021L497.315 380.836L496.406 376.741L494.586 365.82L493.676 359.905L493.221 358.996L492.766 352.626L491.855 349.896L491.4 345.801L490.946 343.07V341.705L490.491 337.61L488.671 328.511V325.325L487.306 320.775L486.851 317.591L486.396 316.226L485.485 308.945L484.121 300.301L482.756 293.476L482.301 289.381V273.91L483.666 264.811L485.031 262.08L497.771 249.341L500.046 246.155L499.591 243.881L496.406 240.695L492.766 237.511L488.216 233.415L482.301 228.41L478.661 225.681L470.926 219.766L466.831 216.58L460.916 211.12L458.186 210.211L455.757 208.086L451.815 204.75L448.631 202.021L444.081 198.836L443.171 197.926L440.896 197.016L438.621 195.195L434.071 192.011L429.976 189.28L427.246 187.915L424.971 186.096L418.601 182L417.235 180.636L411.775 178.36L408.136 176.086L405.406 174.721L401.311 171.99L395.851 169.716L392.211 166.985L389.48 166.53L386.751 165.165V164.256L382.656 163.346L379.471 161.525L374.921 159.705L369.006 157.886L365.366 156.521L363.546 155.155L359.906 154.245L349.896 150.605L348.531 149.695L344.891 149.24L339.431 146.966L333.516 145.146L331.696 144.235L328.056 143.78L323.506 141.961L319.411 140.596L314.86 139.686L309.4 138.32L307.126 137.41L300.301 135.136L297.116 134.681L293.476 133.315L289.381 131.95L286.196 131.495L285.741 131.04L280.281 130.586L276.641 129.221L270.726 127.855L266.176 126.945L263.446 126.49L254.346 124.671L247.976 123.306L241.605 122.851L241.15 122.396L232.051 121.94L227.501 120.575L210.666 119.665L206.116 118.756L201.11 118.301L188.371 117.391L152.881 116.48L143.326 115.57L139.23 115.115L138.321 114.66L139.23 112.386L155.156 96.46L162.436 97.3701ZM40.04 3.18555L41.8604 10.4658L42.7705 15.9258V20.4756L43.2256 21.8408L43.6807 34.5801L44.1357 65.5205V108.29L43.6807 108.745L43.2256 116.48H44.5908L45.9551 99.1904L46.8652 94.1855L47.3203 88.2705L50.9609 70.0703L51.8701 64.6104L53.6904 57.7852L57.3301 48.6855L61.4258 44.1357L68.251 37.7656L78.7158 27.3008L79.626 26.8457L83.7207 27.3008L85.9951 29.1201L89.6357 36.4004L92.3652 45.0459L94.6406 59.1504L95.5508 67.7959L96.0059 78.2607L96.4609 80.9902V84.6309L96.915 85.54V139.686L96.0059 153.336L95.0957 183.82L93.7305 213.396L92.8369 227.683L92.8213 227.956L92.3662 242.061L90.0908 284.831L89.1807 315.315L88.7256 323.961L88.2705 324.871V330.786L87.8154 332.15H86.9062L85.9961 333.971L81.9004 338.976L78.2607 342.615L75.0762 346.256L74.4883 346.769L73.7627 347.403L73.71 347.621L71.4355 349.44H70.5254L70.0703 348.53V333.516L70.5254 318.046L70.9805 313.95L72.3457 280.28L73.2559 258.896L73.7109 246.61L74.165 245.245L75.0752 227.955L75.082 227.758L75.5312 213.396L75.6074 213.318L75.9854 202.931L76.4404 188.825L76.8955 187.915L77.8057 161.98V100.556L76.8955 85.9951L75.9854 80.0801L75.5303 75.5303L74.6201 67.3408L71.4355 55.5107L69.6152 50.9609H69.1602L68.251 59.1504L66.8857 67.7959L66.4307 71.4355L65.0654 80.5352L64.1553 86.4502L63.2451 91.9102L61.4258 108.29L60.0605 113.751L58.2402 126.035L54.1455 152.426L52.3438 162.332L52.3262 162.436L50.9609 176.995L50.5059 179.726L50.0508 182.91L46.8662 186.551L39.6143 193.375L39.1309 193.83L35.9453 197.016L32.7607 198.836L30.4854 197.016L30.0303 196.105L29.5752 189.735L29.1201 187.915L28.2109 171.08L27.7559 166.985V162.436L27.3008 161.525L25.9355 129.676L25.4805 128.311V51.415L24.5703 52.7803L24.1152 74.165L23.6602 81.9004L23.2051 83.2656L22.751 89.6357L22.2959 105.105L21.3857 127.855L20.9307 139.686L20.4756 140.141L20.0205 153.107V153.336L19.5977 165.165L19.5654 166.075L19.1104 192.466V254.346L19.5654 275.73L20.4756 302.12L20.9307 304.851L22.2959 333.061L22.751 334.426V341.251L23.6602 346.711L25.0254 368.096L25.1387 368.551L25.4805 369.916V376.286L25.9355 379.016L26.3906 384.476L26.8457 385.841L28.2109 403.131L28.666 405.405L30.0312 416.78L30.4863 418.601H30.4854L30.6807 419.965L30.9404 421.786L31.2812 424.002L31.3955 424.516L33.2158 435.436L35.0361 443.17L36.0596 448.631L36.4004 450.45L38.6758 459.551L39.5859 465.011L44.1357 478.66V478.661L45.0459 484.121L43.6807 485.031H22.751L21.3857 482.756L20.2939 478.661L17.7451 469.105L16.3809 463.646L15.4707 457.73L13.1953 446.811L12.2852 439.985L11.376 437.711V433.16L10.4658 427.7L10.3379 426.335L9.96875 422.405L9.55566 419.511L9.10059 413.141L8.19043 408.591L7.73535 401.311L7.28027 400.855L6.8252 393.12L5.91504 386.751L4.0957 357.631L3.79785 350.785L3.64062 350.806V347.165L2.73047 341.251L1.36523 304.851L0.455078 288.471L0 262.99V212.485L0.455078 188.37L0.910156 187.006V171.535L1.36523 170.626L2.27539 144.235L3.18555 126.945L3.64062 123.306L4.0957 111.931L5.00586 94.1855L5.91504 79.1709L6.37012 78.2607L7.73535 60.9707L8.64551 51.8701L9.55566 46.8652L10.9209 35.0352L12.7402 24.1152L14.1055 20.0205L16.3809 16.3809L18.6553 13.6504L23.6602 9.55566L32.7607 0.455078L33.6709 0H37.3105L40.04 3.18555ZM214.306 199.746L218.4 201.565L225.226 208.391L227.046 212.03V214.306L210.211 231.141L208.391 230.686L206.116 225.226L202.021 221.131L197.471 218.4L196.105 217.945H189.735L183.821 218.855L175.631 221.586L171.536 224.315L168.351 232.506L166.985 239.785L166.076 243.426L165.621 249.796V262.535L166.076 267.086L166.531 270.271L166.985 274.82L168.806 282.101L172.446 294.386L175.631 303.485L182.001 316.226L184.275 318.956L186.551 323.506L189.735 328.966L193.831 334.426L197.471 339.886L201.046 344.891H201.11L201.083 344.943L206.571 352.626L211.121 362.181L213.851 366.73L217.946 375.376L219.215 379.438L219.311 379.471L220.676 383.565L220.766 384.02L221.131 384.931L221.586 388.115V399.945L217.946 410.865L214.306 416.78L213.822 417.608L213.851 417.69L211.121 422.24L205.206 429.976L201.11 434.525L195.65 440.896L193.831 443.626L191.556 444.536L180.636 455.456L179.271 457.73L174.721 461.371L170.171 465.466L163.346 470.471L158.341 473.655L148.331 478.206L135.591 481.391H119.211L115.116 480.025L115.57 477.75L131.951 461.37L135.136 462.28H155.155L163.801 460.006L171.991 456.82L176.086 455L180.636 451.815L186.096 446.811L189.735 443.625L191.101 441.806L192.011 439.53L195.65 434.525L199.291 427.7L202.021 420.421L202.476 418.601V402.676L198.836 390.846L194.286 381.746L190.19 374.921L187.461 369.916L183.366 364.001L181.091 359.905L177.451 354.9L174.266 349.896L170.171 344.436L166.076 338.065L161.525 329.421L158.341 326.69V341.706L157.886 342.16L157.431 364.91V364.911L141.961 380.381L139.686 381.291L139.23 380.836V343.98L138.321 340.796V337.155L136.956 328.511L134.226 319.41L130.586 312.131L127.4 309.855H120.576L118.301 312.131L114.661 318.046L111.931 324.416L109.201 333.061L107.836 340.796L106.926 346.711V365.82L107.381 368.551L108.746 381.291L109.201 383.11V385.386L110.111 386.751L111.931 394.03L112.386 397.216L114.661 398.126L118.301 394.94L126.036 387.206H144.236L152.881 388.115L160.616 388.57L161.071 389.48L157.431 394.031H156.521L155.611 395.851L147.421 404.041H146.511V404.951H145.601V405.86L144.235 406.771L143.776 406.754L143.781 406.771H139.686V406.607L131.496 406.315L116.48 405.86L118.756 412.23L121.94 417.235L123.533 419.511L125.581 422.24L130.131 427.246L133.771 430.431L138.321 434.07L144.69 438.166L151.061 439.075H156.976L160.615 435.891L166.53 429.976L169.261 426.791H171.081L170.626 428.61L167.896 432.706L157.886 442.716L154.246 445.9L146.056 454.091L142.416 456.366L139.23 457.73H130.586L124.671 455.456L116.025 449.086L106.471 439.531L99.6455 428.61L97.8262 424.516L97.8496 424.301L95.0957 417.69L93.2754 412.686L91.001 402.676L90.5459 400.855L90.0908 394.94L89.1807 392.666L87.8154 381.291L87.3613 380.381V377.65L87.8154 376.741L87.918 373.556L88.2705 362.636L89.1807 355.355L89.2334 355.248L89.6357 352.171L93.7305 339.886L98.2812 331.24L103.286 323.961L108.746 317.591L115.116 310.766L118.301 307.126L121.94 303.94L125.126 300.756L128.766 297.57L134.681 293.021L137.866 291.655L139.23 290.746H144.235L148.331 292.565L147.421 287.561L146.966 280.735L146.511 279.825V267.541L146.966 266.631L148.331 256.166L151.516 244.336L155.156 237.056L158.341 232.506L163.801 226.591L177.451 212.94L183.95 208.064L183.821 207.936L191.101 203.841L194.741 202.021L201.565 199.746H214.306ZM346.711 174.721L349.896 180.181L350.351 183.365L352.171 189.28L352.626 196.105L353.99 201.565L354.445 207.936L355.355 210.21V213.396L356.266 214.761L356.721 221.585L357.631 225.681L358.086 231.596L358.995 236.601L359.45 237.965L360.36 244.79L361.726 249.795L362.181 254.346L364.001 261.17L364.91 264.811L365.365 269.36L367.641 277.096L369.006 284.375L368.551 286.195L363.546 291.655L353.535 301.665L351.261 302.12L348.985 295.75L348.53 292.565L345.346 279.825L343.98 273.91L343.525 270.726L342.16 262.99L341.706 258.896L340.796 257.075L340.341 253.436L339.431 247.521L338.521 242.061L338.065 238.875L337.61 238.42L337.155 231.596L336.245 224.771L335.336 222.95V219.311L333.516 208.391L332.15 202.021H331.24L330.785 206.115L329.876 248.886L328.966 272.546V279.826L328.511 281.646V288.471L328.056 289.381L326.856 313.951L326.235 326.69L325.78 331.695L325.325 342.16V372.19L325.78 374.92V379.926L326.008 381.745L326.69 385.84L327.601 391.755L328.056 398.125L330.331 404.95L330.785 409.045L332.15 411.775L333.061 416.325L335.791 422.695L337.61 426.335L339.431 430.886L342.16 435.436L344.891 439.53L352.171 447.266L353.99 448.63L355.355 448.176L358.086 437.71L359.45 430.431L361.726 419.965L363.091 413.141L363.546 411.315L364.91 404.041L365.82 399.49L366.275 394.03V385.386L364.91 381.746L362.181 378.105L359.905 376.74L354.445 374.921H340.796V373.556L341.99 372.19L343.98 369.915L356.266 357.63L357.631 356.721H373.101L378.561 359.45L383.565 364.455L384.476 365.82V381.746L384.021 385.386L383.565 385.841L383.11 389.936L382.656 391.756L382.201 395.396L381.291 399.945H380.381L379.926 405.86L379.016 407.681L377.65 415.871L377.61 415.753L377.195 418.146L374.921 426.791L373.101 434.98L370.37 444.536L367.186 450.451L362.181 455.911L348.53 469.561L346.256 470.926L343.07 471.381L339.431 470.016L334.881 465.921L328.056 459.096L323.506 452.726L322.596 449.996L319.41 446.355L317.136 447.721L307.126 457.73L305.306 458.186L303.94 455.911L301.665 448.631L296.205 432.706L294.841 426.336L292.565 419.966L289.836 407.681L289.381 404.951L288.016 399.945L287.105 396.761L286.65 394.03L284.376 384.476L283.921 380.38L283.011 376.74L282.101 371.28L281.19 367.186L280.735 363.09L279.825 358.995L279.37 353.08L279.246 352.211L278.916 351.716V349.896L274.365 351.715L268.45 356.266L266.631 358.085L267.541 363.545L267.995 366.73L268.45 367.186V394.94L267.086 407.226L266.176 410.866L264.811 415.871L262.712 424.002L261.171 429.976L256.166 444.08L255.173 446.811L254.346 449.086L251.16 452.726L237.966 465.921L236.146 465.466L236.449 464.556L237.511 461.37L244.336 439.985L248.431 423.15L249.796 412.686L250.251 407.681V389.936L249.341 384.476L247.521 374.011V372.646L245.245 374.011L239.786 379.014L239.33 379.471L237.51 381.062L235.235 383.11L233.87 384.021L232.051 385.386H231.595L230.686 385.84L230.458 385.386H230.23L230.344 385.157L230.23 384.931L231.369 383.107L232.051 381.746L232.439 381.396L232.506 381.29L236.601 376.74L239.331 373.556L242.516 369.915L244.791 367.641V362.636L241.605 355.355L239.331 350.351L237.511 345.801L234.78 339.886L231.596 334.426V331.695L229.775 330.786L226.591 325.78L222.95 318.956L220.676 314.405L217.49 309.4L215.216 306.671L213.851 303.485L209.756 298.936L209.301 295.751L205.206 290.291L205.66 288.471L206.457 287.561L208.846 284.83L211.12 282.556H212.03L212.94 280.735L218.4 275.275L221.586 271.636L223.405 272.09L226.136 275.73L228.41 279.825L233.87 288.926L236.601 292.565L240.24 299.846L241.15 300.755L242.516 303.94L245.245 308.035L248.886 313.95L252.98 321.686L256.166 328.965L258.896 334.426L260.716 339.886L261.352 341.158L261.626 341.25L262.078 342.609L262.081 342.615L263.321 345.511L263.9 345.801H265.266L267.544 343.521L271.636 338.521L275.73 334.426L276.186 323.051V314.405L276.641 313.495L277.551 302.575L278.461 296.205L281.19 286.65L284.83 279.37L288.016 275.73L292.11 271.636L297.115 266.63L298.936 264.355L301.211 264.811L299.846 269.36L297.57 276.186L295.751 285.74L295.296 290.745V317.59L296.206 320.775L296.66 329.42L298.025 339.431L298.48 344.436L299.391 346.71L301.211 358.54L301.666 363.09L302.575 364.455L303.03 368.096L303.94 370.37L304.851 376.285H305.761L306.671 371.735V351.715L307.126 350.806L307.581 341.092V340.795L308.49 321.686L308.945 319.41L309.855 302.575L310.766 276.641L311.221 274.82V250.25L311.676 249.34L312.131 227.955L312.132 227.917L312.586 218.855L312.598 218.843L313.041 210.21L313.95 205.205L315.771 198.38L318.501 193.375L323.506 188.37L327.146 185.186L338.976 173.355L340.341 172.445H343.98L346.711 174.721ZM429.065 269.36L433.615 274.82L434.07 275.73V287.105L431.796 297.115L427.7 309.4L424.516 318.5L419.511 332.15L416.78 341.25L416.4 343.147L416.325 343.98L415.871 345.801V359.45L417.122 364.456L417.69 366.73L420.421 371.28L425.426 376.74L428.61 379.471L434.525 382.2L438.62 383.11H445.9L453.181 381.745L459.096 378.105L460.915 376.285V369.46L460.84 369.006L460.006 364.001L459.096 362.181V358.996L457.73 355.811L457.275 351.261L455.91 345.801L455.455 341.705L454.546 338.065L453.181 328.511L452.798 324.871L452.271 319.866L451.65 317.591L450.905 314.86L449.995 303.94L449.086 299.846V294.386L448.631 293.021V288.471L451.36 285.285H452.271V284.375H453.181L454.091 282.556L464.556 272.091L465.466 271.636H466.831L467.741 275.73L468.196 284.831L468.378 285.286L469.105 287.105L469.561 295.75L470.766 302.576L470.926 303.485L471.836 309.855L472.746 315.315L473.656 320.32L474.111 323.961L474.565 327.146L475.931 334.426L476.841 339.431L477.749 342.159L477.751 342.16H477.75L477.88 343.07L478.66 345.801L479.114 348.073L479.115 348.075L479.57 353.99L480.936 359.45L481.391 362.636L482.301 365.82V369.915L474.11 378.105L470.471 381.29L466.375 385.386L464.556 386.295L463.646 385.386L462.28 379.471L459.096 381.29L452.726 387.205L449.54 390.846L443.625 396.306L439.257 398.853L439.075 399.035L438.62 399.225L438.165 399.49L433.615 401.311L420.875 401.766L421.785 405.405L423.15 411.32L423.251 412.635L423.605 414.051V417.235L420.421 420.876L407.226 434.07L405.405 433.615L404.04 427.7L403.131 420.875L402.221 419.056L401.766 414.96L400.4 410.865L399.945 404.04L399.035 398.58L398.125 390.391L397.671 389.48V384.476L396.761 380.836L395.851 368.096L394.485 363.091L393.575 354.9L391.756 348.075L388.115 337.155L387.205 333.971L385.841 332.605L383.565 333.061L381.423 335.068L381.29 335.336L379.025 337.316L376.285 339.886L374.163 342.008L368.551 347.621L366.73 347.166L366.845 345.346L367.186 339.886L369.915 323.96L373.101 313.04L376.74 304.851L379.926 299.846L385.386 293.476L403.131 275.73L408.136 271.636L413.596 267.995L417.69 266.631H425.426L429.065 269.36ZM395.851 287.105L392.665 292.565L389.936 299.846L390.391 301.21L392.665 300.301L394.94 298.025L396.761 298.936L398.58 302.12L402.676 309.855L406.771 320.32L408.591 324.415L410.41 323.96L414.506 311.676V308.945L415.415 307.58L415.87 302.575V293.021L411.775 287.561L409.5 285.285H399.035L395.851 287.105ZM454.546 247.065L461.371 251.161L462.28 252.525L456.82 258.44L452.726 262.536L449.086 265.721L445.445 269.815L443.171 269.36L436.346 264.811V262.991L437.256 261.626H438.166V260.716H439.076L439.985 258.896L452.726 246.156L454.546 247.065Z" fill="white"/>
</svg>
